<svg width="2000" height="700" viewBox="0 0 2000 700" fill="none" xmlns="http://www.w3.org/2000/svg">
<path d="M264.4 321.762C264.4 338.562 260.26 354.102 251.98 368.382C243.7 382.662 232.48 393.942 218.32 402.222C204.16 410.502 188.68 414.642 171.88 414.642C155.08 414.642 139.6 410.502 125.44 402.222C111.28 393.942 100 382.662 91.6 368.382C83.2 354.102 79 338.562 79 321.762C79 304.962 83.2 289.422 91.6 275.142C100 260.862 111.28 249.582 125.44 241.302C139.6 233.022 155.08 228.882 171.88 228.882C189.4 228.882 204.52 233.442 217.24 242.562V181.762C217.24 169.612 227.09 159.762 239.24 159.762H264.4V321.762ZM171.52 274.602C158.32 274.602 147.4 279.102 138.76 288.102C130.12 297.102 125.8 308.322 125.8 321.762C125.8 335.202 130.12 346.422 138.76 355.422C147.4 364.422 158.32 368.922 171.52 368.922C184.72 368.922 195.76 364.422 204.64 355.422C213.52 346.422 217.96 335.202 217.96 321.762C217.96 308.322 213.52 297.102 204.64 288.102C195.76 279.102 184.72 274.602 171.52 274.602ZM284.2 322.122C284.2 305.562 288.22 290.142 296.26 275.862C304.3 261.582 315.34 250.182 329.38 241.662C343.42 233.142 358.84 228.882 375.64 228.882C391 228.882 405.76 232.422 419.92 239.502C434.08 246.582 445.78 256.842 455.02 270.282C464.26 283.722 469.12 299.562 469.6 317.802C469.84 325.482 469.36 332.922 468.16 340.122H334.6C336.76 349.002 341.5 356.022 348.82 361.182C356.14 366.342 365.08 368.922 375.64 368.922C383.08 368.922 389.14 367.962 393.82 366.042C398.5 364.122 402.76 361.602 406.6 358.482L462.4 358.842C454.96 375.402 443.56 388.842 428.2 399.162C412.84 409.482 395.8 414.642 377.08 414.642C360.04 414.642 344.44 410.502 330.28 402.222C316.12 393.942 304.9 382.722 296.62 368.562C288.34 354.402 284.2 338.922 284.2 322.122ZM334.6 302.682H419.56C415.96 294.282 410.26 287.502 402.46 282.342C394.66 277.182 386.2 274.602 377.08 274.602C367 274.602 358.36 277.122 351.16 282.162C343.96 287.202 338.44 294.042 334.6 302.682ZM538 411.762L471.4 231.762H520.36L561.4 350.202L602.8 231.762H651.76L584.8 411.762H538ZM649.96 322.122C649.96 305.562 653.98 290.142 662.02 275.862C670.06 261.582 681.1 250.182 695.14 241.662C709.18 233.142 724.6 228.882 741.4 228.882C756.76 228.882 771.52 232.422 785.68 239.502C799.84 246.582 811.54 256.842 820.78 270.282C830.02 283.722 834.88 299.562 835.36 317.802C835.6 325.482 835.12 332.922 833.92 340.122H700.36C702.52 349.002 707.26 356.022 714.58 361.182C721.9 366.342 730.84 368.922 741.4 368.922C748.84 368.922 754.9 367.962 759.58 366.042C764.26 364.122 768.52 361.602 772.36 358.482L828.16 358.842C820.72 375.402 809.32 388.842 793.96 399.162C778.6 409.482 761.56 414.642 742.84 414.642C725.8 414.642 710.2 410.502 696.04 402.222C681.88 393.942 670.66 382.722 662.38 368.562C654.1 354.402 649.96 338.922 649.96 322.122ZM700.36 302.682H785.32C781.72 294.282 776.02 287.502 768.22 282.342C760.42 277.182 751.96 274.602 742.84 274.602C732.76 274.602 724.12 277.122 716.92 282.162C709.72 287.202 704.2 294.042 700.36 302.682Z" fill="url(#paint0_linear_1_27)"/>
<path d="M909.221 411.762H862.421V181.762C862.421 169.612 872.271 159.762 884.421 159.762H909.221V411.762ZM1021.9 228.882C1038.7 228.882 1054.24 233.022 1068.52 241.302C1082.8 249.582 1094.08 260.862 1102.36 275.142C1110.64 289.422 1114.78 304.962 1114.78 321.762C1114.78 338.562 1110.64 354.102 1102.36 368.382C1094.08 382.662 1082.8 393.942 1068.52 402.222C1054.24 410.502 1038.7 414.642 1021.9 414.642C1005.1 414.642 989.561 410.502 975.281 402.222C961.001 393.942 949.721 382.662 941.441 368.382C933.161 354.102 929.021 338.562 929.021 321.762C929.021 304.962 933.161 289.422 941.441 275.142C949.721 260.862 961.001 249.582 975.281 241.302C989.561 233.022 1005.1 228.882 1021.9 228.882ZM1022.26 274.602C1009.06 274.602 998.021 279.102 989.141 288.102C980.261 297.102 975.821 308.322 975.821 321.762C975.821 335.202 980.261 346.422 989.141 355.422C998.021 364.422 1009.06 368.922 1022.26 368.922C1035.46 368.922 1046.38 364.422 1055.02 355.422C1063.66 346.422 1067.98 335.202 1067.98 321.762C1067.98 308.322 1063.66 297.102 1055.02 288.102C1046.38 279.102 1035.46 274.602 1022.26 274.602ZM1134.58 321.762C1134.58 304.962 1138.72 289.422 1147 275.142C1155.28 260.862 1166.5 249.582 1180.66 241.302C1194.82 233.022 1210.3 228.882 1227.1 228.882C1243.9 228.882 1259.38 233.022 1273.54 241.302C1287.7 249.582 1298.98 260.862 1307.38 275.142C1315.78 289.422 1319.98 304.962 1319.98 321.762C1319.98 338.562 1315.78 354.102 1307.38 368.382C1298.98 382.662 1287.7 393.942 1273.54 402.222C1259.38 410.502 1243.9 414.642 1227.1 414.642C1209.58 414.642 1194.46 410.082 1181.74 400.962V460.182C1181.74 473.205 1171.18 483.762 1158.16 483.762C1145.14 483.762 1134.58 473.205 1134.58 460.182V321.762ZM1227.46 368.922C1240.66 368.922 1251.58 364.422 1260.22 355.422C1268.86 346.422 1273.18 335.202 1273.18 321.762C1273.18 308.322 1268.86 297.102 1260.22 288.102C1251.58 279.102 1240.66 274.602 1227.46 274.602C1214.26 274.602 1203.22 279.102 1194.34 288.102C1185.46 297.102 1181.02 308.322 1181.02 321.762C1181.02 335.202 1185.46 346.422 1194.34 355.422C1203.22 364.422 1214.26 368.922 1227.46 368.922ZM1337.98 322.122C1337.98 305.562 1342 290.142 1350.04 275.862C1358.08 261.582 1369.12 250.182 1383.16 241.662C1397.2 233.142 1412.62 228.882 1429.42 228.882C1444.78 228.882 1459.54 232.422 1473.7 239.502C1487.86 246.582 1499.56 256.842 1508.8 270.282C1518.04 283.722 1522.9 299.562 1523.38 317.802C1523.62 325.482 1523.14 332.922 1521.94 340.122H1388.38C1390.54 349.002 1395.28 356.022 1402.6 361.182C1409.92 366.342 1418.86 368.922 1429.42 368.922C1436.86 368.922 1442.92 367.962 1447.6 366.042C1452.28 364.122 1456.54 361.602 1460.38 358.482L1516.18 358.842C1508.74 375.402 1497.34 388.842 1481.98 399.162C1466.62 409.482 1449.58 414.642 1430.86 414.642C1413.82 414.642 1398.22 410.502 1384.06 402.222C1369.9 393.942 1358.68 382.722 1350.4 368.562C1342.12 354.402 1337.98 338.922 1337.98 322.122ZM1388.38 302.682H1473.34C1469.74 294.282 1464.04 287.502 1456.24 282.342C1448.44 277.182 1439.98 274.602 1430.86 274.602C1420.78 274.602 1412.14 277.122 1404.94 282.162C1397.74 287.202 1392.22 294.042 1388.38 302.682ZM1543.18 411.762V317.082C1543.18 288.522 1550.26 267.042 1564.42 252.642C1578.58 238.242 1597.18 231.042 1620.22 231.042H1622.38V276.762H1620.58C1610.26 276.762 1602.58 280.002 1597.54 286.482C1592.5 292.962 1589.98 303.162 1589.98 317.082V411.762H1543.18Z" fill="url(#paint1_linear_1_27)"/>
<path d="M1768.89 322C1832.4 322 1883.89 270.513 1883.89 207C1883.89 143.487 1832.4 92 1768.89 92C1705.38 92 1653.89 143.487 1653.89 207C1653.89 270.513 1705.38 322 1768.89 322Z" fill="url(#paint2_linear_1_27)"/>
<path d="M1757.95 179.243C1765.55 179.243 1771.61 181.703 1776.13 186.623C1780.65 191.543 1782.91 198.883 1782.91 208.643V240.203H1775.23V208.643C1775.23 201.363 1773.69 195.863 1770.61 192.143C1767.53 188.423 1763.31 186.563 1757.95 186.563C1752.59 186.563 1748.35 188.423 1745.23 192.143C1742.11 195.863 1740.55 201.363 1740.55 208.643V240.203H1732.87V208.643C1732.87 201.363 1731.33 195.863 1728.25 192.143C1725.17 188.423 1720.95 186.563 1715.59 186.563C1710.23 186.563 1705.99 188.423 1702.87 192.143C1699.75 195.863 1698.19 201.363 1698.19 208.643V240.203H1690.51V208.643C1690.51 198.883 1692.77 191.543 1697.29 186.623C1701.81 181.703 1707.91 179.243 1715.59 179.243C1720.55 179.243 1724.91 180.443 1728.67 182.843C1732.43 185.243 1735.11 188.803 1736.71 193.523C1738.31 188.803 1741.01 185.243 1744.81 182.843C1748.61 180.443 1752.99 179.243 1757.95 179.243ZM1820.47 241.163C1814.87 241.163 1809.71 239.783 1804.99 237.023C1800.27 234.263 1796.51 230.503 1793.71 225.743C1790.91 220.983 1789.51 215.803 1789.51 210.203C1789.51 204.603 1790.91 199.423 1793.71 194.663C1796.51 189.903 1800.27 186.143 1804.99 183.383C1809.71 180.623 1814.87 179.243 1820.47 179.243C1826.07 179.243 1831.23 180.623 1835.95 183.383C1840.67 186.143 1844.41 189.903 1847.17 194.663C1849.93 199.423 1851.31 204.603 1851.31 210.203V240.203H1843.63V227.363C1841.63 231.443 1838.51 234.763 1834.27 237.323C1830.03 239.883 1825.43 241.163 1820.47 241.163ZM1820.59 233.843C1824.83 233.843 1828.73 232.803 1832.29 230.723C1835.85 228.643 1838.65 225.783 1840.69 222.143C1842.73 218.503 1843.75 214.523 1843.75 210.203C1843.75 205.883 1842.73 201.903 1840.69 198.263C1838.65 194.623 1835.87 191.763 1832.35 189.683C1828.83 187.603 1824.91 186.563 1820.59 186.563C1816.27 186.563 1812.33 187.603 1808.77 189.683C1805.21 191.763 1802.39 194.623 1800.31 198.263C1798.23 201.903 1797.19 205.883 1797.19 210.203C1797.19 214.523 1798.23 218.483 1800.31 222.083C1802.39 225.683 1805.23 228.543 1808.83 230.663C1812.43 232.783 1816.35 233.843 1820.59 233.843ZM1676.23 226.643V240.203H1683.91V226.643H1676.23Z" fill="white"/>
<path d="M645.832 576.926C644.79 576.21 644.367 575.135 644.562 573.703C644.758 572.271 645.214 570.806 645.93 569.309C646.646 567.616 647.688 565.76 649.055 563.742C651.138 559.771 652.993 556.223 654.621 553.098C656.314 549.908 657.876 546.913 659.309 544.113C660.741 541.314 662.108 538.612 663.41 536.008C664.712 533.404 666.014 530.669 667.316 527.805C668.684 524.94 670.083 521.88 671.516 518.625C672.948 515.37 674.543 511.659 676.301 507.492C676.431 507.232 676.626 506.874 676.887 506.418C677.212 505.897 677.57 505.507 677.961 505.246C678.417 504.921 678.872 504.823 679.328 504.953C679.784 505.018 680.24 505.474 680.695 506.32C681.346 507.622 681.379 509.413 680.793 511.691C680.272 513.97 679.328 516.607 677.961 519.602C676.594 522.531 674.966 525.721 673.078 529.172C671.19 532.557 669.204 536.008 667.121 539.523C665.038 543.039 662.987 546.522 660.969 549.973C658.951 553.423 657.16 556.646 655.598 559.641C654.1 562.635 652.928 565.37 652.082 567.844C651.301 570.253 651.04 572.173 651.301 573.605C655.923 574.061 660.578 574.029 665.266 573.508C669.953 572.987 674.641 572.368 679.328 571.652C684.016 570.871 688.703 570.188 693.391 569.602C698.143 569.016 702.863 568.885 707.551 569.211C708.397 569.081 709.113 569.374 709.699 570.09C710.285 570.806 710.318 571.587 709.797 572.434C709.667 572.434 709.374 572.434 708.918 572.434C708.527 572.368 708.104 572.336 707.648 572.336C707.193 572.336 706.737 572.368 706.281 572.434C705.891 572.434 705.598 572.434 705.402 572.434C701.757 572.759 697.492 573.345 692.609 574.191C687.727 574.973 682.681 575.721 677.473 576.438C672.264 577.154 667.056 577.707 661.848 578.098C656.704 578.488 652.049 578.456 647.883 578C647.818 578 647.492 577.87 646.906 577.609C646.385 577.284 646.027 577.056 645.832 576.926ZM719.758 576.926C717.805 576.275 716.307 575.298 715.266 573.996C714.289 572.629 713.638 571.132 713.312 569.504C712.987 567.876 712.922 566.184 713.117 564.426C713.378 562.603 713.768 560.878 714.289 559.25C716.242 557.167 718.423 554.79 720.832 552.121C723.306 549.387 725.91 546.717 728.645 544.113C731.379 541.509 734.211 539.1 737.141 536.887C740.135 534.608 743.163 532.883 746.223 531.711C747.264 531.255 748.078 531.288 748.664 531.809C749.315 532.264 749.771 533.013 750.031 534.055C750.292 535.096 750.389 536.301 750.324 537.668C750.324 539.035 750.227 540.37 750.031 541.672C749.836 542.974 749.576 544.146 749.25 545.188C748.924 546.229 748.599 546.945 748.273 547.336C747.492 548.247 745.962 549.322 743.684 550.559C741.47 551.796 738.996 553.163 736.262 554.66C733.527 556.092 730.793 557.59 728.059 559.152C725.324 560.715 723.078 562.277 721.32 563.84C719.562 565.337 718.521 566.835 718.195 568.332C717.87 569.829 718.781 571.197 720.93 572.434C723.143 572.694 725.812 572.596 728.938 572.141C732.128 571.62 735.35 570.969 738.605 570.188C741.926 569.341 745.116 568.495 748.176 567.648C751.236 566.737 753.742 566.021 755.695 565.5L756.867 566.574C755.435 568.462 753.091 570.188 749.836 571.75C746.581 573.312 743.065 574.615 739.289 575.656C735.513 576.633 731.835 577.284 728.254 577.609C724.673 577.87 721.841 577.642 719.758 576.926ZM743.098 539.621C743.033 539.556 742.544 539.849 741.633 540.5C740.721 541.086 739.582 541.9 738.215 542.941C736.913 543.918 735.48 545.025 733.918 546.262C732.421 547.434 731.021 548.54 729.719 549.582C728.482 550.624 727.44 551.535 726.594 552.316C725.747 553.033 725.389 553.391 725.52 553.391C726.561 553.586 727.896 553.456 729.523 553C731.216 552.479 732.941 551.763 734.699 550.852C736.522 549.94 738.247 548.931 739.875 547.824C741.503 546.652 742.772 545.513 743.684 544.406C744.66 543.299 745.148 542.323 745.148 541.477C745.214 540.63 744.53 540.012 743.098 539.621ZM762.824 576.926C762.759 576.796 762.727 576.438 762.727 575.852C762.727 575.266 762.759 574.875 762.824 574.68C763.02 573.964 763.378 572.727 763.898 570.969C764.419 569.146 764.973 567.258 765.559 565.305C766.145 563.286 766.698 561.398 767.219 559.641C767.74 557.883 768.098 556.646 768.293 555.93C768.553 555.018 768.846 553.977 769.172 552.805C769.497 551.568 769.562 550.396 769.367 549.289C768.391 549.159 767.186 549.289 765.754 549.68C764.322 550.005 762.889 550.298 761.457 550.559C760.09 550.754 758.788 550.754 757.551 550.559C756.379 550.298 755.533 549.517 755.012 548.215C755.793 546.587 756.965 545.546 758.527 545.09C760.09 544.569 761.783 544.211 763.605 544.016C765.428 543.82 767.154 543.527 768.781 543.137C770.474 542.746 771.809 541.867 772.785 540.5C773.371 538.807 774.055 536.757 774.836 534.348C775.682 531.874 776.561 529.302 777.473 526.633C778.384 523.964 779.361 521.327 780.402 518.723C781.509 516.118 782.648 513.807 783.82 511.789C784.536 511.333 785.122 511.301 785.578 511.691C786.034 512.082 786.359 512.668 786.555 513.449C786.815 514.165 786.978 514.914 787.043 515.695C787.108 516.477 787.108 516.997 787.043 517.258C786.652 518.951 785.969 520.773 784.992 522.727C784.081 524.615 783.202 526.535 782.355 528.488C781.574 530.441 780.923 532.395 780.402 534.348C779.947 536.301 779.947 538.156 780.402 539.914H801.398C801.464 539.914 801.626 540.142 801.887 540.598C802.147 540.988 802.375 541.314 802.57 541.574C802.896 542.486 802.538 543.104 801.496 543.43C800.454 543.755 799.055 543.983 797.297 544.113C795.539 544.178 793.521 544.243 791.242 544.309C789.029 544.309 786.88 544.471 784.797 544.797C782.779 545.057 780.956 545.546 779.328 546.262C777.701 546.913 776.594 547.922 776.008 549.289C774.315 553.651 772.753 558.046 771.32 562.473C769.888 566.835 768.521 571.262 767.219 575.754C767.089 575.949 766.828 576.275 766.438 576.73C766.047 577.121 765.624 577.479 765.168 577.805C764.712 578.065 764.257 578.163 763.801 578.098C763.41 578.033 763.085 577.642 762.824 576.926ZM801.691 530.539C801.691 530.474 801.757 530.148 801.887 529.562C802.082 528.977 802.277 528.358 802.473 527.707C802.733 526.991 802.993 526.275 803.254 525.559C803.514 524.842 803.71 524.289 803.84 523.898C804.816 521.294 805.598 519.992 806.184 519.992C806.77 519.992 807.16 520.708 807.355 522.141C807.551 523.573 807.551 525.428 807.355 527.707C807.225 529.921 806.9 532.004 806.379 533.957C805.923 535.845 805.305 537.31 804.523 538.352C803.742 539.393 802.798 539.361 801.691 538.254C801.691 537.993 801.659 537.505 801.594 536.789C801.594 536.073 801.594 535.292 801.594 534.445C801.594 533.599 801.594 532.818 801.594 532.102C801.659 531.385 801.691 530.865 801.691 530.539ZM816.34 576.926C815.559 576.405 815.526 575.721 816.242 574.875C817.023 573.964 818.228 573.02 819.855 572.043C821.548 571.001 823.501 569.927 825.715 568.82C827.928 567.714 830.044 566.672 832.062 565.695C834.146 564.719 835.969 563.872 837.531 563.156C839.094 562.375 840.103 561.789 840.559 561.398C842.707 559.576 843.814 558.078 843.879 556.906C844.009 555.669 843.488 554.693 842.316 553.977C841.145 553.195 839.484 552.609 837.336 552.219C835.253 551.763 833.072 551.372 830.793 551.047C828.579 550.656 826.431 550.266 824.348 549.875C822.329 549.484 820.799 548.964 819.758 548.312C818.716 547.661 818.358 546.815 818.684 545.773C819.074 544.667 820.507 543.267 822.98 541.574C823.892 540.923 825.227 539.979 826.984 538.742C828.742 537.505 830.63 536.236 832.648 534.934C834.732 533.632 836.783 532.46 838.801 531.418C840.819 530.376 842.512 529.693 843.879 529.367C844.595 529.237 845.311 529.302 846.027 529.562C846.809 529.823 847.427 530.214 847.883 530.734C848.339 531.19 848.534 531.711 848.469 532.297C848.469 532.883 848.046 533.404 847.199 533.859C843.488 535.943 839.908 537.896 836.457 539.719C833.072 541.542 829.654 543.625 826.203 545.969C826.008 546.49 826.04 546.945 826.301 547.336C826.626 547.727 826.984 548.02 827.375 548.215C834.276 548.931 839.452 549.94 842.902 551.242C846.418 552.544 848.632 553.977 849.543 555.539C850.52 557.102 850.422 558.762 849.25 560.52C848.078 562.277 846.32 564.003 843.977 565.695C841.698 567.388 839.061 568.983 836.066 570.48C833.072 571.978 830.174 573.247 827.375 574.289C824.641 575.331 822.232 576.112 820.148 576.633C818.065 577.154 816.796 577.251 816.34 576.926ZM911.945 577.707C909.992 576.6 908.625 575.526 907.844 574.484C907.062 573.443 906.672 572.336 906.672 571.164C906.672 569.992 906.965 568.69 907.551 567.258C908.137 565.826 908.82 564.165 909.602 562.277C909.797 561.887 910.188 561.105 910.773 559.934C911.359 558.697 912.01 557.264 912.727 555.637C913.508 554.009 914.322 552.316 915.168 550.559C916.079 548.736 916.893 547.01 917.609 545.383C918.391 543.755 919.042 542.355 919.562 541.184C920.148 539.947 920.539 539.133 920.734 538.742C921.581 536.919 921.939 535.324 921.809 533.957C921.743 532.525 921.581 531.19 921.32 529.953C921.125 528.716 921.027 527.512 921.027 526.34C921.092 525.168 921.711 523.833 922.883 522.336C923.078 522.141 923.501 521.685 924.152 520.969C924.803 520.253 925.487 519.504 926.203 518.723C926.984 517.876 927.701 517.128 928.352 516.477C929.003 515.76 929.393 515.305 929.523 515.109C929.849 514.719 930.76 514.068 932.258 513.156C933.82 512.245 935.708 511.268 937.922 510.227C940.135 509.12 942.577 508.013 945.246 506.906C947.98 505.734 950.682 504.725 953.352 503.879C956.021 502.967 958.592 502.284 961.066 501.828C963.54 501.372 965.656 501.242 967.414 501.438C969.172 501.633 970.441 502.251 971.223 503.293C972.069 504.335 972.199 505.93 971.613 508.078C970.637 511.594 969.042 514.686 966.828 517.355C964.68 520.025 962.401 522.401 959.992 524.484C957.583 526.568 955.272 528.423 953.059 530.051C950.91 531.678 949.315 533.208 948.273 534.641C956.086 534.901 961.783 535.845 965.363 537.473C969.009 539.1 971.06 541.151 971.516 543.625C972.036 546.099 971.255 548.866 969.172 551.926C967.089 554.921 964.224 557.915 960.578 560.91C956.932 563.84 952.798 566.639 948.176 569.309C943.553 571.913 938.931 574.061 934.309 575.754C929.751 577.447 925.454 578.521 921.418 578.977C917.447 579.432 914.289 579.009 911.945 577.707ZM919.66 554.074C918.423 555.572 917.284 557.232 916.242 559.055C915.201 560.812 914.387 562.57 913.801 564.328C913.28 566.021 913.052 567.648 913.117 569.211C913.182 570.708 913.671 571.945 914.582 572.922C915.493 573.833 916.861 574.387 918.684 574.582C920.572 574.777 923.078 574.419 926.203 573.508C933.104 571.945 939.094 569.96 944.172 567.551C949.315 565.142 953.547 562.635 956.867 560.031C960.253 557.362 962.727 554.725 964.289 552.121C965.917 549.517 966.665 547.238 966.535 545.285C966.47 543.267 965.526 541.737 963.703 540.695C961.945 539.654 959.374 539.361 955.988 539.816C952.603 540.207 948.404 541.542 943.391 543.82C938.443 546.034 932.714 549.452 926.203 554.074C925.487 554.66 924.836 554.953 924.25 554.953C923.664 554.888 923.111 554.758 922.59 554.562C922.069 554.302 921.581 554.074 921.125 553.879C920.669 553.684 920.181 553.749 919.66 554.074ZM921.809 545.871C921.809 546.066 921.776 546.359 921.711 546.75C921.711 547.141 921.711 547.564 921.711 548.02C921.711 548.41 921.711 548.801 921.711 549.191C921.776 549.582 921.809 549.875 921.809 550.07C922.329 549.94 923.404 549.322 925.031 548.215C926.659 547.108 928.612 545.676 930.891 543.918C933.234 542.16 935.773 540.174 938.508 537.961C941.242 535.682 943.977 533.339 946.711 530.93C949.51 528.456 952.147 526.014 954.621 523.605C957.16 521.132 959.341 518.82 961.164 516.672C962.987 514.523 964.354 512.635 965.266 511.008C966.242 509.315 966.535 508.013 966.145 507.102C963.28 506.711 960.253 506.906 957.062 507.688C953.938 508.404 950.845 509.478 947.785 510.91C944.79 512.342 941.991 514.003 939.387 515.891C936.783 517.714 934.602 519.504 932.844 521.262C932.453 522.108 931.802 523.605 930.891 525.754C929.979 527.902 928.97 530.181 927.863 532.59C926.822 534.999 925.812 537.277 924.836 539.426C923.924 541.509 923.273 542.974 922.883 543.82C922.883 543.951 922.72 544.309 922.395 544.895C922.069 545.415 921.874 545.741 921.809 545.871ZM1016.83 576.926C1015.07 576.21 1013.67 575.266 1012.63 574.094C1011.59 572.922 1010.77 571.587 1010.19 570.09C1009.6 568.592 1009.15 567.03 1008.82 565.402C1008.49 563.71 1008.2 562.017 1007.94 560.324C1007.36 559.934 1006.31 560.324 1004.82 561.496C1003.32 562.603 1001.59 564.003 999.641 565.695C997.688 567.388 995.572 569.146 993.293 570.969C991.079 572.727 988.931 574.029 986.848 574.875C984.764 575.721 982.844 575.884 981.086 575.363C979.393 574.842 978.059 573.15 977.082 570.285C976.757 569.309 976.854 567.909 977.375 566.086C977.961 564.198 978.807 562.147 979.914 559.934C981.021 557.72 982.29 555.441 983.723 553.098C985.22 550.689 986.652 548.475 988.02 546.457C989.452 544.374 990.754 542.616 991.926 541.184C993.163 539.686 994.107 538.71 994.758 538.254C996.255 538.97 996.906 540.077 996.711 541.574C996.581 543.007 995.995 544.667 994.953 546.555C993.977 548.443 992.674 550.461 991.047 552.609C989.484 554.758 987.987 556.906 986.555 559.055C985.188 561.138 984.081 563.156 983.234 565.109C982.388 567.062 982.16 568.788 982.551 570.285C983.983 570.871 985.741 570.578 987.824 569.406C989.973 568.169 992.251 566.477 994.66 564.328C997.134 562.18 999.641 559.738 1002.18 557.004C1004.78 554.204 1007.19 551.535 1009.41 548.996C1011.62 546.392 1013.57 544.113 1015.27 542.16C1016.96 540.207 1018.2 538.905 1018.98 538.254C1020.34 538.905 1021.03 539.979 1021.03 541.477C1021.03 542.909 1020.64 544.569 1019.86 546.457C1019.14 548.345 1018.23 550.396 1017.12 552.609C1016.08 554.758 1015.17 556.906 1014.39 559.055C1013.61 561.203 1013.15 563.254 1013.02 565.207C1012.89 567.16 1013.41 568.853 1014.58 570.285L1017.9 574.191H1027.77C1028.22 574.191 1028.32 574.387 1028.06 574.777C1027.8 575.168 1027.41 575.591 1026.89 576.047C1026.43 576.503 1025.94 576.958 1025.42 577.414C1024.9 577.805 1024.61 578 1024.54 578C1022.85 578.326 1021.48 578.358 1020.44 578.098C1019.4 577.902 1018.2 577.512 1016.83 576.926ZM1032.16 576.926C1034.83 568.332 1037.24 561.529 1039.39 556.516C1041.6 551.438 1043.42 547.889 1044.86 545.871C1046.35 543.853 1047.36 543.202 1047.88 543.918C1048.4 544.634 1048.34 546.457 1047.69 549.387C1047.1 552.316 1045.8 556.255 1043.78 561.203C1041.83 566.086 1039.06 571.685 1035.48 578C1034.96 578.195 1034.34 578.228 1033.62 578.098C1032.91 577.967 1032.42 577.577 1032.16 576.926ZM1049.25 529.953C1049.12 529.628 1049.05 529.042 1049.05 528.195C1049.05 527.349 1049.12 526.828 1049.25 526.633C1050.75 526.112 1051.89 526.047 1052.67 526.438C1053.45 526.828 1053.94 527.414 1054.13 528.195C1054.33 528.911 1054.3 529.693 1054.04 530.539C1053.84 531.385 1053.48 532.036 1052.96 532.492C1052.44 532.883 1051.82 532.948 1051.11 532.688C1050.45 532.362 1049.84 531.451 1049.25 529.953ZM1061.46 576.926C1059.57 575.559 1058.33 573.833 1057.75 571.75C1057.23 569.667 1057.16 567.421 1057.55 565.012C1057.94 562.538 1058.62 559.999 1059.6 557.395C1060.64 554.79 1061.75 552.284 1062.92 549.875C1064.16 547.466 1065.33 545.253 1066.44 543.234C1067.61 541.216 1068.52 539.556 1069.17 538.254C1069.37 537.863 1069.82 536.919 1070.54 535.422C1071.32 533.924 1072.13 532.297 1072.98 530.539C1073.83 528.781 1074.61 527.154 1075.32 525.656C1076.11 524.094 1076.59 523.117 1076.79 522.727C1076.98 522.401 1077.24 521.783 1077.57 520.871C1077.96 519.895 1078.38 518.853 1078.84 517.746C1079.3 516.639 1079.78 515.598 1080.3 514.621C1080.89 513.579 1081.48 512.831 1082.06 512.375C1082.71 511.919 1083.33 511.854 1083.92 512.18C1084.57 512.505 1085.19 513.482 1085.77 515.109C1085.51 515.76 1084.86 517.062 1083.82 519.016C1082.84 520.969 1081.67 523.312 1080.3 526.047C1078.94 528.781 1077.41 531.809 1075.71 535.129C1074.09 538.449 1072.49 541.802 1070.93 545.188C1069.37 548.573 1067.9 551.893 1066.54 555.148C1065.17 558.339 1064.03 561.268 1063.12 563.938C1062.27 566.542 1061.75 568.723 1061.55 570.48C1061.42 572.173 1061.75 573.215 1062.53 573.605C1063.44 574.061 1064.61 574.257 1066.05 574.191C1067.54 574.061 1069.07 573.866 1070.64 573.605C1072.2 573.345 1073.73 573.085 1075.23 572.824C1076.72 572.499 1078.03 572.368 1079.13 572.434C1079.39 573.02 1079.2 573.605 1078.55 574.191C1077.9 574.712 1076.98 575.201 1075.81 575.656C1074.64 576.047 1073.27 576.405 1071.71 576.73C1070.21 576.991 1068.75 577.186 1067.32 577.316C1065.95 577.447 1064.71 577.479 1063.61 577.414C1062.56 577.349 1061.85 577.186 1061.46 576.926ZM1129.91 575.754C1127.44 574.061 1125.65 571.978 1124.54 569.504C1123.44 566.965 1122.62 564.263 1122.1 561.398H1121.03C1115.75 565.695 1111.16 568.918 1107.26 571.066C1103.42 573.215 1100.16 574.549 1097.49 575.07C1094.82 575.526 1092.74 575.298 1091.24 574.387C1089.74 573.475 1088.77 572.173 1088.31 570.48C1087.92 568.723 1088.02 566.672 1088.61 564.328C1089.19 561.984 1090.2 559.641 1091.63 557.297C1093.07 554.888 1094.92 552.609 1097.2 550.461C1099.48 548.312 1102.08 546.555 1105.01 545.188C1108.01 543.82 1111.29 542.974 1114.88 542.648C1118.52 542.258 1122.43 542.648 1126.59 543.82L1127.67 542.648L1140.85 516.184C1142.61 516.444 1143.65 517.225 1143.98 518.527C1144.3 519.829 1144.27 521.262 1143.88 522.824C1143.55 524.387 1143.03 525.917 1142.32 527.414C1141.67 528.846 1141.18 529.888 1140.85 530.539C1140.66 530.93 1140.27 531.678 1139.68 532.785C1139.16 533.892 1138.51 535.227 1137.73 536.789C1137.01 538.286 1136.23 539.882 1135.38 541.574C1134.54 543.267 1133.72 544.895 1132.94 546.457C1132.23 547.954 1131.57 549.289 1130.99 550.461C1130.4 551.568 1130.04 552.284 1129.91 552.609C1128.74 555.018 1128.19 557.59 1128.25 560.324C1128.38 562.993 1128.55 565.565 1128.74 568.039C1129 569.211 1129.52 570.188 1130.3 570.969C1131.09 571.685 1131.9 572.368 1132.75 573.02C1133.66 573.605 1134.54 574.191 1135.38 574.777C1136.29 575.363 1137.04 576.079 1137.63 576.926C1137.37 577.772 1136.85 578.195 1136.07 578.195C1135.29 578.26 1134.47 578.13 1133.62 577.805C1132.78 577.479 1132 577.089 1131.28 576.633C1130.57 576.177 1130.11 575.884 1129.91 575.754ZM1093.49 571.359C1093.75 572.466 1094.73 572.792 1096.42 572.336C1098.18 571.88 1100.23 570.936 1102.57 569.504C1104.91 568.007 1107.39 566.216 1109.99 564.133C1112.66 562.049 1115.04 559.966 1117.12 557.883C1119.27 555.799 1120.93 553.879 1122.1 552.121C1123.34 550.363 1123.73 549.061 1123.27 548.215C1121.26 547.108 1119.01 546.555 1116.54 546.555C1114.06 546.555 1111.59 547.01 1109.11 547.922C1106.7 548.768 1104.36 550.005 1102.08 551.633C1099.87 553.195 1097.98 555.018 1096.42 557.102C1094.92 559.185 1093.85 561.464 1093.2 563.938C1092.61 566.346 1092.71 568.82 1093.49 571.359ZM1210.68 576.926C1210.29 575.298 1210.29 573.443 1210.68 571.359C1211.13 569.211 1211.75 567.062 1212.53 564.914C1213.31 562.766 1214.16 560.715 1215.07 558.762C1215.98 556.743 1216.73 555.083 1217.32 553.781C1217.64 553 1218.13 551.861 1218.78 550.363C1219.5 548.866 1220.28 547.173 1221.12 545.285C1222.04 543.397 1222.95 541.411 1223.86 539.328C1224.84 537.245 1225.75 535.259 1226.59 533.371C1227.51 531.483 1228.29 529.823 1228.94 528.391C1229.65 526.893 1230.17 525.786 1230.5 525.07C1229.39 524.875 1227.8 524.973 1225.71 525.363C1223.7 525.754 1221.45 526.275 1218.98 526.926C1216.5 527.512 1213.96 528.13 1211.36 528.781C1208.76 529.432 1206.31 529.921 1204.04 530.246C1201.82 530.507 1199.9 530.539 1198.27 530.344C1196.71 530.083 1195.73 529.4 1195.34 528.293C1195.8 527.447 1197.46 526.47 1200.32 525.363C1203.19 524.257 1206.83 523.117 1211.26 521.945C1215.75 520.708 1220.73 519.471 1226.2 518.234C1231.74 516.997 1237.37 515.826 1243.1 514.719C1248.83 513.612 1254.43 512.603 1259.89 511.691C1265.36 510.78 1270.25 510.031 1274.54 509.445C1278.84 508.859 1282.29 508.469 1284.89 508.273C1287.56 508.078 1288.96 508.143 1289.09 508.469C1289.29 508.99 1289.32 509.641 1289.19 510.422C1289.06 511.138 1288.64 511.594 1287.92 511.789C1284.73 512.31 1281.28 512.896 1277.57 513.547C1273.86 514.133 1270.08 514.784 1266.24 515.5C1262.47 516.151 1258.76 516.835 1255.11 517.551C1251.46 518.202 1248.08 518.853 1244.95 519.504C1242.93 519.895 1240.98 521.066 1239.09 523.02C1237.21 524.973 1235.38 527.414 1233.62 530.344C1231.87 533.208 1230.17 536.431 1228.55 540.012C1226.92 543.527 1225.36 547.108 1223.86 550.754C1222.43 554.4 1221.09 557.915 1219.86 561.301C1218.62 564.686 1217.48 567.681 1216.44 570.285C1215.4 572.824 1214.48 574.81 1213.7 576.242C1212.92 577.674 1212.27 578.26 1211.75 578C1211.62 577.87 1211.42 577.674 1211.16 577.414C1210.9 577.154 1210.74 576.991 1210.68 576.926ZM1249.15 575.754C1249.09 575.624 1249.05 575.461 1249.05 575.266C1249.05 575.005 1249.09 574.81 1249.15 574.68C1249.41 574.159 1249.84 573.28 1250.42 572.043C1251.07 570.741 1251.72 569.406 1252.38 568.039C1253.09 566.607 1253.77 565.272 1254.43 564.035C1255.08 562.798 1255.53 561.919 1255.79 561.398C1255.92 561.203 1256.25 560.65 1256.77 559.738C1257.36 558.827 1258.04 557.72 1258.82 556.418C1259.67 555.051 1260.55 553.553 1261.46 551.926C1262.43 550.298 1263.38 548.703 1264.29 547.141C1265.27 545.578 1266.14 544.113 1266.93 542.746C1267.77 541.379 1268.46 540.24 1268.98 539.328C1270.28 537.18 1271.78 534.641 1273.47 531.711C1275.23 528.781 1277.02 525.819 1278.84 522.824C1280.66 519.829 1282.45 516.932 1284.21 514.133C1286.03 511.333 1287.69 509.022 1289.19 507.199C1290.69 505.376 1291.96 504.172 1293 503.586C1294.04 503 1294.76 503.391 1295.15 504.758V507.883C1294.69 508.599 1294.07 509.543 1293.29 510.715C1292.51 511.822 1291.7 513.026 1290.85 514.328C1290.07 515.565 1289.29 516.77 1288.51 517.941C1287.73 519.113 1287.14 520.025 1286.75 520.676C1286.16 521.587 1285.22 523.052 1283.92 525.07C1282.62 527.089 1281.15 529.367 1279.52 531.906C1277.9 534.445 1276.24 537.115 1274.54 539.914C1272.85 542.648 1271.32 545.22 1269.95 547.629C1268.59 550.038 1267.48 552.121 1266.63 553.879C1265.85 555.572 1265.56 556.646 1265.75 557.102C1267.32 556.646 1268.98 555.832 1270.73 554.66C1272.56 553.423 1274.38 552.121 1276.2 550.754C1278.03 549.387 1279.85 548.085 1281.67 546.848C1283.49 545.546 1285.19 544.536 1286.75 543.82C1288.31 544.016 1289.68 544.602 1290.85 545.578C1292.02 546.555 1292.87 547.792 1293.39 549.289C1293.33 549.875 1293.26 550.982 1293.2 552.609C1293.2 554.172 1293.2 555.832 1293.2 557.59C1293.2 559.348 1293.2 561.008 1293.2 562.57C1293.26 564.133 1293.33 565.207 1293.39 565.793C1293.46 566.509 1293.78 567.421 1294.37 568.527C1294.95 569.569 1295.57 570.643 1296.22 571.75C1296.94 572.792 1297.56 573.703 1298.08 574.484C1298.66 575.266 1298.92 575.689 1298.86 575.754C1297.56 576.21 1296.32 576.242 1295.15 575.852C1293.98 575.396 1292.93 574.712 1292.02 573.801C1291.18 572.824 1290.46 571.75 1289.88 570.578C1289.35 569.341 1289.03 568.137 1288.9 566.965C1288.83 566.379 1288.74 565.305 1288.61 563.742C1288.48 562.115 1288.35 560.422 1288.21 558.664C1288.15 556.906 1288.05 555.246 1287.92 553.684C1287.86 552.121 1287.82 551.047 1287.82 550.461L1285.58 549.289C1285.19 549.094 1284.5 549.257 1283.53 549.777C1282.62 550.298 1281.54 551.014 1280.3 551.926C1279.07 552.837 1277.77 553.879 1276.4 555.051C1275.03 556.223 1273.73 557.329 1272.49 558.371C1271.32 559.413 1270.31 560.324 1269.46 561.105C1268.62 561.887 1268.1 562.375 1267.9 562.57C1267.38 563.091 1266.44 564.035 1265.07 565.402C1263.7 566.704 1262.24 568.137 1260.68 569.699C1259.18 571.197 1257.75 572.629 1256.38 573.996C1255.08 575.363 1254.17 576.34 1253.64 576.926C1252.73 577.121 1251.85 577.219 1251.01 577.219C1250.23 577.154 1249.61 576.665 1249.15 575.754ZM1310.48 576.926C1308.53 576.275 1307.03 575.298 1305.99 573.996C1305.01 572.629 1304.36 571.132 1304.04 569.504C1303.71 567.876 1303.64 566.184 1303.84 564.426C1304.1 562.603 1304.49 560.878 1305.01 559.25C1306.96 557.167 1309.15 554.79 1311.55 552.121C1314.03 549.387 1316.63 546.717 1319.37 544.113C1322.1 541.509 1324.93 539.1 1327.86 536.887C1330.86 534.608 1333.89 532.883 1336.95 531.711C1337.99 531.255 1338.8 531.288 1339.39 531.809C1340.04 532.264 1340.49 533.013 1340.75 534.055C1341.01 535.096 1341.11 536.301 1341.05 537.668C1341.05 539.035 1340.95 540.37 1340.75 541.672C1340.56 542.974 1340.3 544.146 1339.97 545.188C1339.65 546.229 1339.32 546.945 1339 547.336C1338.21 548.247 1336.68 549.322 1334.41 550.559C1332.19 551.796 1329.72 553.163 1326.98 554.66C1324.25 556.092 1321.52 557.59 1318.78 559.152C1316.05 560.715 1313.8 562.277 1312.04 563.84C1310.29 565.337 1309.24 566.835 1308.92 568.332C1308.59 569.829 1309.5 571.197 1311.65 572.434C1313.87 572.694 1316.54 572.596 1319.66 572.141C1322.85 571.62 1326.07 570.969 1329.33 570.188C1332.65 569.341 1335.84 568.495 1338.9 567.648C1341.96 566.737 1344.46 566.021 1346.42 565.5L1347.59 566.574C1346.16 568.462 1343.81 570.188 1340.56 571.75C1337.3 573.312 1333.79 574.615 1330.01 575.656C1326.24 576.633 1322.56 577.284 1318.98 577.609C1315.4 577.87 1312.56 577.642 1310.48 576.926ZM1333.82 539.621C1333.76 539.556 1333.27 539.849 1332.36 540.5C1331.44 541.086 1330.3 541.9 1328.94 542.941C1327.64 543.918 1326.2 545.025 1324.64 546.262C1323.14 547.434 1321.74 548.54 1320.44 549.582C1319.2 550.624 1318.16 551.535 1317.32 552.316C1316.47 553.033 1316.11 553.391 1316.24 553.391C1317.28 553.586 1318.62 553.456 1320.25 553C1321.94 552.479 1323.66 551.763 1325.42 550.852C1327.24 549.94 1328.97 548.931 1330.6 547.824C1332.23 546.652 1333.49 545.513 1334.41 544.406C1335.38 543.299 1335.87 542.323 1335.87 541.477C1335.94 540.63 1335.25 540.012 1333.82 539.621ZM1398.96 576.926C1398.63 576.014 1398.53 575.103 1398.66 574.191C1398.86 573.215 1399.15 572.238 1399.54 571.262C1399.93 570.285 1400.36 569.341 1400.81 568.43C1401.33 567.518 1401.76 566.639 1402.08 565.793C1402.41 565.142 1402.93 564.003 1403.64 562.375C1404.43 560.682 1405.21 558.924 1405.99 557.102C1406.83 555.214 1407.62 553.423 1408.33 551.73C1409.05 550.038 1409.57 548.866 1409.89 548.215C1410.29 547.434 1410.22 546.75 1409.7 546.164C1409.24 545.513 1408.72 544.895 1408.14 544.309C1407.62 543.723 1407.19 543.137 1406.87 542.551C1406.61 541.965 1406.87 541.281 1407.65 540.5C1408.1 540.044 1408.69 539.751 1409.41 539.621C1410.12 539.491 1410.87 539.393 1411.65 539.328C1412.43 539.198 1413.15 539.003 1413.8 538.742C1414.45 538.482 1414.97 537.961 1415.36 537.18L1426.5 516.086C1426.04 514.328 1425.88 512.863 1426.01 511.691C1426.2 510.52 1426.59 509.51 1427.18 508.664C1427.83 507.818 1428.64 507.036 1429.62 506.32C1430.66 505.604 1431.83 504.79 1433.14 503.879C1439.84 502.837 1446.42 501.958 1452.86 501.242C1459.37 500.526 1466.05 500.331 1472.88 500.656C1473.27 500.721 1473.76 501.014 1474.35 501.535C1474.93 501.991 1475.42 502.544 1475.81 503.195C1476.2 503.781 1476.37 504.367 1476.3 504.953C1476.3 505.539 1475.88 505.93 1475.03 506.125C1474.97 506.125 1474.77 506.092 1474.45 506.027C1474.12 505.897 1473.76 505.767 1473.37 505.637C1472.98 505.507 1472.62 505.376 1472.3 505.246C1471.97 505.116 1471.78 505.051 1471.71 505.051C1466.5 505.051 1461.98 505.116 1458.14 505.246C1454.3 505.376 1450.94 505.669 1448.08 506.125C1445.28 506.516 1442.84 507.134 1440.75 507.98C1438.74 508.827 1436.91 509.999 1435.29 511.496C1433.72 512.928 1432.23 514.751 1430.79 516.965C1429.43 519.178 1427.99 521.88 1426.5 525.07C1425.78 526.438 1425.13 527.74 1424.54 528.977C1424.02 530.083 1423.6 531.19 1423.27 532.297C1422.95 533.339 1422.92 534.217 1423.18 534.934C1426.82 535.585 1430.5 535.52 1434.21 534.738C1437.99 533.957 1441.76 533.013 1445.54 531.906C1449.32 530.799 1453.09 529.823 1456.87 528.977C1460.71 528.065 1464.55 527.837 1468.39 528.293V530.539C1468.39 530.669 1467.19 530.962 1464.78 531.418C1462.37 531.809 1459.28 532.395 1455.5 533.176C1451.79 533.892 1447.69 534.803 1443.2 535.91C1438.77 536.952 1434.5 538.189 1430.4 539.621C1426.3 541.053 1422.69 542.681 1419.56 544.504C1416.44 546.327 1414.32 548.312 1413.21 550.461C1411.13 554.693 1409.15 559.055 1407.26 563.547C1405.37 567.974 1403.64 572.434 1402.08 576.926C1401.69 577.512 1401.14 577.87 1400.42 578C1399.77 578.13 1399.28 577.772 1398.96 576.926ZM1511.85 576.926C1510.09 576.21 1508.69 575.266 1507.65 574.094C1506.61 572.922 1505.79 571.587 1505.21 570.09C1504.62 568.592 1504.17 567.03 1503.84 565.402C1503.51 563.71 1503.22 562.017 1502.96 560.324C1502.38 559.934 1501.33 560.324 1499.84 561.496C1498.34 562.603 1496.61 564.003 1494.66 565.695C1492.71 567.388 1490.59 569.146 1488.31 570.969C1486.1 572.727 1483.95 574.029 1481.87 574.875C1479.78 575.721 1477.86 575.884 1476.11 575.363C1474.41 574.842 1473.08 573.15 1472.1 570.285C1471.78 569.309 1471.87 567.909 1472.39 566.086C1472.98 564.198 1473.83 562.147 1474.93 559.934C1476.04 557.72 1477.31 555.441 1478.74 553.098C1480.24 550.689 1481.67 548.475 1483.04 546.457C1484.47 544.374 1485.77 542.616 1486.95 541.184C1488.18 539.686 1489.13 538.71 1489.78 538.254C1491.27 538.97 1491.93 540.077 1491.73 541.574C1491.6 543.007 1491.01 544.667 1489.97 546.555C1489 548.443 1487.69 550.461 1486.07 552.609C1484.5 554.758 1483.01 556.906 1481.57 559.055C1480.21 561.138 1479.1 563.156 1478.25 565.109C1477.41 567.062 1477.18 568.788 1477.57 570.285C1479 570.871 1480.76 570.578 1482.84 569.406C1484.99 568.169 1487.27 566.477 1489.68 564.328C1492.15 562.18 1494.66 559.738 1497.2 557.004C1499.8 554.204 1502.21 551.535 1504.43 548.996C1506.64 546.392 1508.59 544.113 1510.29 542.16C1511.98 540.207 1513.21 538.905 1514 538.254C1515.36 538.905 1516.05 539.979 1516.05 541.477C1516.05 542.909 1515.66 544.569 1514.88 546.457C1514.16 548.345 1513.25 550.396 1512.14 552.609C1511.1 554.758 1510.19 556.906 1509.41 559.055C1508.62 561.203 1508.17 563.254 1508.04 565.207C1507.91 567.16 1508.43 568.853 1509.6 570.285L1512.92 574.191H1522.79C1523.24 574.191 1523.34 574.387 1523.08 574.777C1522.82 575.168 1522.43 575.591 1521.91 576.047C1521.45 576.503 1520.96 576.958 1520.44 577.414C1519.92 577.805 1519.63 578 1519.56 578C1517.87 578.326 1516.5 578.358 1515.46 578.098C1514.42 577.902 1513.21 577.512 1511.85 576.926ZM1534.99 576.926C1534.93 576.796 1534.89 576.438 1534.89 575.852C1534.89 575.266 1534.93 574.875 1534.99 574.68C1535.19 573.964 1535.55 572.727 1536.07 570.969C1536.59 569.146 1537.14 567.258 1537.73 565.305C1538.31 563.286 1538.87 561.398 1539.39 559.641C1539.91 557.883 1540.27 556.646 1540.46 555.93C1540.72 555.018 1541.01 553.977 1541.34 552.805C1541.67 551.568 1541.73 550.396 1541.54 549.289C1540.56 549.159 1539.35 549.289 1537.92 549.68C1536.49 550.005 1535.06 550.298 1533.62 550.559C1532.26 550.754 1530.96 550.754 1529.72 550.559C1528.55 550.298 1527.7 549.517 1527.18 548.215C1527.96 546.587 1529.13 545.546 1530.7 545.09C1532.26 544.569 1533.95 544.211 1535.77 544.016C1537.6 543.82 1539.32 543.527 1540.95 543.137C1542.64 542.746 1543.98 541.867 1544.95 540.5C1545.54 538.807 1546.22 536.757 1547 534.348C1547.85 531.874 1548.73 529.302 1549.64 526.633C1550.55 523.964 1551.53 521.327 1552.57 518.723C1553.68 516.118 1554.82 513.807 1555.99 511.789C1556.7 511.333 1557.29 511.301 1557.75 511.691C1558.2 512.082 1558.53 512.668 1558.72 513.449C1558.98 514.165 1559.15 514.914 1559.21 515.695C1559.28 516.477 1559.28 516.997 1559.21 517.258C1558.82 518.951 1558.14 520.773 1557.16 522.727C1556.25 524.615 1555.37 526.535 1554.52 528.488C1553.74 530.441 1553.09 532.395 1552.57 534.348C1552.11 536.301 1552.11 538.156 1552.57 539.914H1573.57C1573.63 539.914 1573.79 540.142 1574.05 540.598C1574.32 540.988 1574.54 541.314 1574.74 541.574C1575.06 542.486 1574.71 543.104 1573.66 543.43C1572.62 543.755 1571.22 543.983 1569.46 544.113C1567.71 544.178 1565.69 544.243 1563.41 544.309C1561.2 544.309 1559.05 544.471 1556.96 544.797C1554.95 545.057 1553.12 545.546 1551.5 546.262C1549.87 546.913 1548.76 547.922 1548.18 549.289C1546.48 553.651 1544.92 558.046 1543.49 562.473C1542.06 566.835 1540.69 571.262 1539.39 575.754C1539.26 575.949 1539 576.275 1538.61 576.73C1538.21 577.121 1537.79 577.479 1537.34 577.805C1536.88 578.065 1536.42 578.163 1535.97 578.098C1535.58 578.033 1535.25 577.642 1534.99 576.926ZM1610.09 576.926C1608.33 576.21 1606.93 575.266 1605.89 574.094C1604.85 572.922 1604.04 571.587 1603.45 570.09C1602.86 568.592 1602.41 567.03 1602.08 565.402C1601.76 563.71 1601.46 562.017 1601.2 560.324C1600.62 559.934 1599.58 560.324 1598.08 561.496C1596.58 562.603 1594.86 564.003 1592.9 565.695C1590.95 567.388 1588.83 569.146 1586.55 570.969C1584.34 572.727 1582.19 574.029 1580.11 574.875C1578.03 575.721 1576.11 575.884 1574.35 575.363C1572.65 574.842 1571.32 573.15 1570.34 570.285C1570.02 569.309 1570.12 567.909 1570.64 566.086C1571.22 564.198 1572.07 562.147 1573.18 559.934C1574.28 557.72 1575.55 555.441 1576.98 553.098C1578.48 550.689 1579.91 548.475 1581.28 546.457C1582.71 544.374 1584.02 542.616 1585.19 541.184C1586.42 539.686 1587.37 538.71 1588.02 538.254C1589.52 538.97 1590.17 540.077 1589.97 541.574C1589.84 543.007 1589.26 544.667 1588.21 546.555C1587.24 548.443 1585.94 550.461 1584.31 552.609C1582.75 554.758 1581.25 556.906 1579.82 559.055C1578.45 561.138 1577.34 563.156 1576.5 565.109C1575.65 567.062 1575.42 568.788 1575.81 570.285C1577.24 570.871 1579 570.578 1581.09 569.406C1583.23 568.169 1585.51 566.477 1587.92 564.328C1590.4 562.18 1592.9 559.738 1595.44 557.004C1598.05 554.204 1600.45 551.535 1602.67 548.996C1604.88 546.392 1606.83 544.113 1608.53 542.16C1610.22 540.207 1611.46 538.905 1612.24 538.254C1613.61 538.905 1614.29 539.979 1614.29 541.477C1614.29 542.909 1613.9 544.569 1613.12 546.457C1612.4 548.345 1611.49 550.396 1610.38 552.609C1609.34 554.758 1608.43 556.906 1607.65 559.055C1606.87 561.203 1606.41 563.254 1606.28 565.207C1606.15 567.16 1606.67 568.853 1607.84 570.285L1611.16 574.191H1621.03C1621.48 574.191 1621.58 574.387 1621.32 574.777C1621.06 575.168 1620.67 575.591 1620.15 576.047C1619.69 576.503 1619.2 576.958 1618.68 577.414C1618.16 577.805 1617.87 578 1617.8 578C1616.11 578.326 1614.74 578.358 1613.7 578.098C1612.66 577.902 1611.46 577.512 1610.09 576.926ZM1627.18 576.926C1627.05 576.861 1627.05 576.112 1627.18 574.68C1627.38 573.182 1627.64 571.327 1627.96 569.113C1628.29 566.9 1628.71 564.458 1629.23 561.789C1629.75 559.12 1630.3 556.581 1630.89 554.172C1631.48 551.698 1632.1 549.549 1632.75 547.727C1633.46 545.839 1634.15 544.536 1634.8 543.82C1635.25 543.365 1635.71 543.365 1636.16 543.82C1636.62 544.211 1637.08 544.732 1637.53 545.383C1637.99 545.969 1638.44 546.522 1638.9 547.043C1639.35 547.499 1639.84 547.531 1640.36 547.141C1642.19 544.602 1644.17 542.193 1646.32 539.914C1648.53 537.57 1650.98 535.552 1653.64 533.859C1653.9 533.664 1654.62 533.371 1655.79 532.98C1656.96 532.525 1658.3 532.102 1659.8 531.711C1661.29 531.255 1662.82 530.897 1664.39 530.637C1666.01 530.311 1667.38 530.181 1668.49 530.246C1669.66 530.246 1670.44 530.539 1670.83 531.125C1671.29 531.646 1671.09 532.557 1670.25 533.859C1666.34 533.924 1662.69 535.064 1659.31 537.277C1655.92 539.491 1652.8 542.225 1649.93 545.48C1647.07 548.736 1644.46 552.284 1642.12 556.125C1639.78 559.901 1637.73 563.417 1635.97 566.672C1634.28 569.927 1632.84 572.629 1631.67 574.777C1630.57 576.926 1629.75 578 1629.23 578C1629.17 578 1628.87 577.87 1628.35 577.609C1627.83 577.284 1627.44 577.056 1627.18 576.926ZM1680.11 576.926C1678.16 576.275 1676.66 575.298 1675.62 573.996C1674.64 572.629 1673.99 571.132 1673.66 569.504C1673.34 567.876 1673.27 566.184 1673.47 564.426C1673.73 562.603 1674.12 560.878 1674.64 559.25C1676.59 557.167 1678.77 554.79 1681.18 552.121C1683.66 549.387 1686.26 546.717 1689 544.113C1691.73 541.509 1694.56 539.1 1697.49 536.887C1700.49 534.608 1703.51 532.883 1706.57 531.711C1707.62 531.255 1708.43 531.288 1709.02 531.809C1709.67 532.264 1710.12 533.013 1710.38 534.055C1710.64 535.096 1710.74 536.301 1710.68 537.668C1710.68 539.035 1710.58 540.37 1710.38 541.672C1710.19 542.974 1709.93 544.146 1709.6 545.188C1709.28 546.229 1708.95 546.945 1708.62 547.336C1707.84 548.247 1706.31 549.322 1704.04 550.559C1701.82 551.796 1699.35 553.163 1696.61 554.66C1693.88 556.092 1691.14 557.59 1688.41 559.152C1685.68 560.715 1683.43 562.277 1681.67 563.84C1679.91 565.337 1678.87 566.835 1678.55 568.332C1678.22 569.829 1679.13 571.197 1681.28 572.434C1683.49 572.694 1686.16 572.596 1689.29 572.141C1692.48 571.62 1695.7 570.969 1698.96 570.188C1702.28 569.341 1705.47 568.495 1708.53 567.648C1711.59 566.737 1714.09 566.021 1716.05 565.5L1717.22 566.574C1715.79 568.462 1713.44 570.188 1710.19 571.75C1706.93 573.312 1703.42 574.615 1699.64 575.656C1695.86 576.633 1692.19 577.284 1688.61 577.609C1685.02 577.87 1682.19 577.642 1680.11 576.926ZM1703.45 539.621C1703.38 539.556 1702.9 539.849 1701.98 540.5C1701.07 541.086 1699.93 541.9 1698.57 542.941C1697.26 543.918 1695.83 545.025 1694.27 546.262C1692.77 547.434 1691.37 548.54 1690.07 549.582C1688.83 550.624 1687.79 551.535 1686.95 552.316C1686.1 553.033 1685.74 553.391 1685.87 553.391C1686.91 553.586 1688.25 553.456 1689.88 553C1691.57 552.479 1693.29 551.763 1695.05 550.852C1696.87 549.94 1698.6 548.931 1700.23 547.824C1701.85 546.652 1703.12 545.513 1704.04 544.406C1705.01 543.299 1705.5 542.323 1705.5 541.477C1705.57 540.63 1704.88 540.012 1703.45 539.621Z" fill="black"/>
<path d="M103.207 486.191C103.207 509.02 97.6135 540.255 104.236 562.11C114.766 596.86 157.101 604.789 187.489 604.187C286.945 602.218 388.556 578.997 482.157 546.154C530.186 529.302 576.598 507.784 626.659 497.772" stroke="black" stroke-width="3" stroke-linecap="round"/>
<path d="M501.587 509.353C501.587 520.252 506.411 587.825 496.954 588.103C484.012 588.483 477.535 567.675 474.307 557.993C472.239 551.788 469.939 545.661 467.874 539.463C467.795 539.226 465.95 531.062 465.043 531.743C462.788 533.434 464.528 547.037 464.528 549.243C464.528 564.334 466.149 580.361 464.013 595.308C461.081 615.835 447.753 567.49 445.999 563.397C443.193 556.85 439.807 540.944 439.05 557.221C437.984 580.139 433.641 608.855 422.837 629.536C419.622 635.692 416.745 616.657 416.403 609.72C415.631 594.032 416.121 578.315 415.374 562.625C414.94 553.509 415.633 526.591 413.058 535.346C407.484 554.297 402.543 573.011 395.815 591.706C388.647 611.624 382.141 632.442 373.168 651.668C371.626 654.973 368.175 664.213 364.418 665.823C361.188 667.207 349.224 599.431 348.463 596.338C339.684 560.655 328.926 523.793 313.978 490.052C311.065 483.479 309.345 481.254 309.345 488.508" stroke="black" stroke-width="3" stroke-linecap="round"/>
<defs>
<linearGradient id="paint0_linear_1_27" x1="457.21" y1="159.762" x2="457.21" y2="414.642" gradientUnits="userSpaceOnUse">
<stop stop-color="#F58220"/>
<stop offset="0.291667" stop-color="#F58220"/>
<stop offset="0.421875" stop-color="#F58220"/>
<stop offset="0.552083" stop-color="#F58220" stop-opacity="0.5"/>
<stop offset="0.744792" stop-color="#F58220"/>
<stop offset="1" stop-color="#F58220"/>
</linearGradient>
<linearGradient id="paint1_linear_1_27" x1="1242.4" y1="159.762" x2="1242.4" y2="483.762" gradientUnits="userSpaceOnUse">
<stop/>
<stop offset="0.166667"/>
<stop offset="0.348958" stop-opacity="0.88"/>
<stop offset="0.541667" stop-opacity="0.53"/>
<stop offset="0.729167"/>
<stop offset="1"/>
</linearGradient>
<linearGradient id="paint2_linear_1_27" x1="1768.89" y1="92" x2="1768.89" y2="322" gradientUnits="userSpaceOnUse">
<stop stop-color="#F58220"/>
<stop offset="0.151042" stop-color="#F58220"/>
<stop offset="0.317708" stop-color="#F58220" stop-opacity="0.82"/>
<stop offset="0.479167" stop-color="#F58220" stop-opacity="0.604167"/>
<stop offset="0.651042" stop-color="#F58220"/>
<stop offset="0.828125" stop-color="#F58220"/>
<stop offset="1" stop-color="#F58220"/>
</linearGradient>
</defs>
</svg>
